# xmcd
#
# Track frame offsets:
#	150
#	18495
#	36245
#	55870
#	72942
#	95682
#	110882
#	130310
#	146837
#	163292
#	181427
#	199245
#	215762
#	233017
#	249005
#	273162
#	291637
#	311127
#
# Disc length: 4381 seconds
#
# Revision: 0
# Processed by: cddbd v1.5.1PL2 Copyright (c) Steve Scherf et al.
# Submitted via: EasyCDDAExtractor 9.0.0.1
#
DISCID=22111b12
DTITLE=Various Artist - CD2
DYEAR=1900
DGENRE=
TTITLE0=Sarah Brightman - Time To Say Goodbye
TTITLE1=Captain Jack - Together And Forever
TTITLE2=Jam Tronik - Forever Love
TTITLE3=Ghetto People Feat. L-Viz - Fever
TTITLE4=U-Nit and Charles Simmons - You
TTITLE5=Tic Tac Toe - Warum
TTITLE6=White Town - Your Woman
TTITLE7=Blue Collar - Co Co
TTITLE8=Sash! - Encore Une Fois
TTITLE9=Max Deejay - Rhythm Is A Dancer
TTITLE10=Tina Turner and Barry White - In Your Wildest Dreams
TTITLE11=Republica - Ready To Go
TTITLE12=And One - Sometimes
TTITLE13=Nomansland - Fantasy
TTITLE14=R.Kelly - I Believe I Can Fly
TTITLE15=Eddy N. - Just Be Good To Me
TTITLE16=Khaled - Aicha
TTITLE17=Saragossa Band - Der Zabadak Hits Mix
EXTD=
EXTT0=
EXTT1=
EXTT2=
EXTT3=
EXTT4=
EXTT5=
EXTT6=
EXTT7=
EXTT8=
EXTT9=
EXTT10=
EXTT11=
EXTT12=
EXTT13=
EXTT14=
EXTT15=
EXTT16=
EXTT17=
PLAYORDER=
